<svg xmlns="http://www.w3.org/2000/svg" width="53" height="56" viewBox="0 0 53 56" fill="none">
  <path d="M20.2211 39.3697C19.3541 39.3697 18.6513 40.112 18.6513 41.0276C18.6513 41.9432 19.3541 42.6856 20.2211 42.6856H32.7791C33.6462 42.6856 34.3489 41.9432 34.3489 41.0276C34.3489 40.112 33.6462 39.3697 32.7791 39.3697H20.2211Z" fill="#FF7798"/>
  <path fill-rule="evenodd" clip-rule="evenodd" d="M26.4999 4C25.0216 4 24.0827 5.10389 23.4513 6.09384C22.8104 7.09854 22.1416 8.54608 21.3487 10.2623L16.6127 20.5123C16.1543 21.5045 15.8593 22.1385 15.6034 22.5784C15.4258 22.8837 15.3288 22.9819 15.3061 23.0028C15.2407 23.0349 15.1797 23.0452 15.1235 23.041C15.0872 23.0197 14.9855 22.9519 14.7985 22.7692C14.4592 22.4379 14.0369 21.9333 13.367 21.128L13.3061 21.0547C12.1075 19.6135 11.1284 18.4362 10.3219 17.6399C9.9084 17.2316 9.47376 16.8553 9.01694 16.5856C8.55243 16.3114 7.96915 16.091 7.30361 16.1528C6.31347 16.2446 5.43488 16.7735 4.81889 17.5596C4.07572 18.5079 3.99208 19.8336 4.00054 20.9797C4.00964 22.2178 4.15609 23.861 4.33804 25.9027L4.83479 31.4774C5.22198 35.8228 5.52524 39.226 6.05054 41.8699C6.58571 44.5635 7.39024 46.6947 8.92658 48.3547C10.486 50.0396 12.4021 50.8104 14.7701 51.1763C17.0479 51.528 19.9251 51.528 23.5291 51.528H29.4708C33.0749 51.528 35.952 51.528 38.2298 51.1763C40.5979 50.8104 42.514 50.0396 44.0736 48.3547C45.6098 46.6947 46.4144 44.5635 46.9496 41.8699C47.4747 39.226 47.778 35.8228 48.1652 31.4774L48.6621 25.9027C48.844 23.861 48.9905 22.2178 48.9995 20.9797C49.0078 19.8336 48.9243 18.5079 48.1811 17.5596C47.5651 16.7735 46.6865 16.2446 45.6965 16.1528C45.0309 16.091 44.4476 16.3114 43.9831 16.5856C43.5262 16.8553 43.0917 17.2316 42.6781 17.6399C41.8717 18.4362 40.8926 19.6135 39.6939 21.0548L39.633 21.128C38.9632 21.9333 38.5409 22.4379 38.2016 22.7692C38.0145 22.9519 37.9128 23.0197 37.8765 23.041C37.8202 23.0452 37.7593 23.0349 37.694 23.0028C37.6712 22.9819 37.5741 22.8837 37.3966 22.5784C37.1406 22.1385 36.8457 21.5045 36.3874 20.5123L31.6513 10.2622C30.8584 8.54606 30.1897 7.09854 29.5488 6.09382C28.9174 5.10387 27.9784 4 26.4999 4ZM24.116 11.8339C24.9777 9.96892 25.5518 8.73522 26.055 7.94648C26.268 7.61244 26.4145 7.44543 26.4999 7.36498C26.5855 7.44543 26.7321 7.61244 26.9451 7.94648C27.4481 8.73522 28.0224 9.96892 28.8841 11.8339L33.5988 22.0378C34.0147 22.938 34.376 23.7201 34.7215 24.3143C35.0755 24.9227 35.5424 25.5715 36.2693 25.9579C36.9255 26.3068 37.6645 26.4348 38.396 26.3127C39.2192 26.1752 39.844 25.6814 40.3329 25.2039C40.807 24.741 41.3378 24.1028 41.9397 23.379L41.9916 23.3163C43.2661 21.7842 44.1428 20.7328 44.822 20.0622C45.1582 19.7304 45.3792 19.5602 45.515 19.48L45.5169 19.4789C45.5874 19.5062 45.6695 19.5601 45.7505 19.6588C45.7505 19.6588 45.7507 19.6588 45.7505 19.6588C45.7499 19.6592 45.7509 19.6635 45.7536 19.6729C45.7733 19.7388 45.8666 20.0523 45.8602 20.9539C45.8522 22.0312 45.7199 23.5305 45.5286 25.6772L45.0489 31.0607C44.6502 35.5349 44.3613 38.7505 43.8768 41.1888C43.3979 43.599 42.7673 45.0224 41.8284 46.0368C40.9127 47.0263 39.7362 47.5924 37.7757 47.8953C35.7511 48.2079 33.1036 48.2121 29.3464 48.2121H23.6536C19.8965 48.2121 17.249 48.2079 15.2244 47.8953C13.2638 47.5924 12.0874 47.0263 11.1716 46.0368C10.2327 45.0224 9.602 43.599 9.12314 41.1888C8.63871 38.7505 8.34977 35.5349 7.95107 31.0607L7.47135 25.6772C7.28007 23.5305 7.14789 22.0312 7.13996 20.9539C7.13332 20.0525 7.22644 19.7389 7.24603 19.673C7.24882 19.6636 7.25012 19.6592 7.24945 19.6589C7.33047 19.5601 7.41253 19.5062 7.48321 19.4789L7.48508 19.48C7.62087 19.5602 7.84181 19.7304 8.17793 20.0622C8.85711 20.7328 9.73403 21.7842 11.0083 23.3163L11.0604 23.379C11.6623 24.1028 12.193 24.741 12.6671 25.2039C13.1561 25.6814 13.7808 26.1752 14.6039 26.3127C15.3355 26.4348 16.0746 26.3068 16.7307 25.9579C17.4577 25.5715 17.9245 24.9227 18.2784 24.3143C18.624 23.7201 18.9854 22.9381 19.4012 22.038L24.116 11.8339ZM45.7505 19.6588C45.7545 19.6637 45.7586 19.6687 45.7626 19.6738C45.7576 19.6674 45.7542 19.6628 45.7522 19.6605C45.7515 19.6596 45.7509 19.659 45.7505 19.6588ZM26.5922 7.29592C26.5922 7.29696 26.5855 7.30116 26.5728 7.30545C26.586 7.29703 26.5922 7.29488 26.5922 7.29592ZM26.4271 7.30545C26.4143 7.30116 26.4078 7.29696 26.4078 7.29592C26.4076 7.29488 26.4141 7.29703 26.4271 7.30545Z" fill="white"/>
  <g filter="url(#filter0_f_281_34)">
    <path d="M20.2211 39.3697C19.3541 39.3697 18.6513 40.112 18.6513 41.0276C18.6513 41.9432 19.3541 42.6856 20.2211 42.6856H32.7791C33.6462 42.6856 34.3489 41.9432 34.3489 41.0276C34.3489 40.112 33.6462 39.3697 32.7791 39.3697H20.2211Z" fill="#FF7798"/>
    <path fill-rule="evenodd" clip-rule="evenodd" d="M26.4999 4C25.0216 4 24.0827 5.10389 23.4513 6.09384C22.8104 7.09854 22.1416 8.54608 21.3487 10.2623L16.6127 20.5123C16.1543 21.5045 15.8593 22.1385 15.6034 22.5784C15.4258 22.8837 15.3288 22.9819 15.3061 23.0028C15.2407 23.0349 15.1797 23.0452 15.1235 23.041C15.0872 23.0197 14.9855 22.9519 14.7985 22.7692C14.4592 22.4379 14.0369 21.9333 13.367 21.128L13.3061 21.0547C12.1075 19.6135 11.1284 18.4362 10.3219 17.6399C9.9084 17.2316 9.47376 16.8553 9.01694 16.5856C8.55243 16.3114 7.96915 16.091 7.30361 16.1528C6.31347 16.2446 5.43488 16.7735 4.81889 17.5596C4.07572 18.5079 3.99208 19.8336 4.00054 20.9797C4.00964 22.2178 4.15609 23.861 4.33804 25.9027L4.83479 31.4774C5.22198 35.8228 5.52524 39.226 6.05054 41.8699C6.58571 44.5635 7.39024 46.6947 8.92658 48.3547C10.486 50.0396 12.4021 50.8104 14.7701 51.1763C17.0479 51.528 19.9251 51.528 23.5291 51.528H29.4708C33.0749 51.528 35.952 51.528 38.2298 51.1763C40.5979 50.8104 42.514 50.0396 44.0736 48.3547C45.6098 46.6947 46.4144 44.5635 46.9496 41.8699C47.4747 39.226 47.778 35.8228 48.1652 31.4774L48.6621 25.9027C48.844 23.861 48.9905 22.2178 48.9995 20.9797C49.0078 19.8336 48.9243 18.5079 48.1811 17.5596C47.5651 16.7735 46.6865 16.2446 45.6965 16.1528C45.0309 16.091 44.4476 16.3114 43.9831 16.5856C43.5262 16.8553 43.0917 17.2316 42.6781 17.6399C41.8717 18.4362 40.8926 19.6135 39.6939 21.0548L39.633 21.128C38.9632 21.9333 38.5409 22.4379 38.2016 22.7692C38.0145 22.9519 37.9128 23.0197 37.8765 23.041C37.8202 23.0452 37.7593 23.0349 37.694 23.0028C37.6712 22.9819 37.5741 22.8837 37.3966 22.5784C37.1406 22.1385 36.8457 21.5045 36.3874 20.5123L31.6513 10.2622C30.8584 8.54606 30.1897 7.09854 29.5488 6.09382C28.9174 5.10387 27.9784 4 26.4999 4ZM24.116 11.8339C24.9777 9.96892 25.5518 8.73522 26.055 7.94648C26.268 7.61244 26.4145 7.44543 26.4999 7.36498C26.5855 7.44543 26.7321 7.61244 26.9451 7.94648C27.4481 8.73522 28.0224 9.96892 28.8841 11.8339L33.5988 22.0378C34.0147 22.938 34.376 23.7201 34.7215 24.3143C35.0755 24.9227 35.5424 25.5715 36.2693 25.9579C36.9255 26.3068 37.6645 26.4348 38.396 26.3127C39.2192 26.1752 39.844 25.6814 40.3329 25.2039C40.807 24.741 41.3378 24.1028 41.9397 23.379L41.9916 23.3163C43.2661 21.7842 44.1428 20.7328 44.822 20.0622C45.1582 19.7304 45.3792 19.5602 45.515 19.48L45.5169 19.4789C45.5874 19.5062 45.6695 19.5601 45.7505 19.6588C45.7505 19.6588 45.7507 19.6588 45.7505 19.6588C45.7499 19.6592 45.7509 19.6635 45.7536 19.6729C45.7733 19.7388 45.8666 20.0523 45.8602 20.9539C45.8522 22.0312 45.7199 23.5305 45.5286 25.6772L45.0489 31.0607C44.6502 35.5349 44.3613 38.7505 43.8768 41.1888C43.3979 43.599 42.7673 45.0224 41.8284 46.0368C40.9127 47.0263 39.7362 47.5924 37.7757 47.8953C35.7511 48.2079 33.1036 48.2121 29.3464 48.2121H23.6536C19.8965 48.2121 17.249 48.2079 15.2244 47.8953C13.2638 47.5924 12.0874 47.0263 11.1716 46.0368C10.2327 45.0224 9.602 43.599 9.12314 41.1888C8.63871 38.7505 8.34977 35.5349 7.95107 31.0607L7.47135 25.6772C7.28007 23.5305 7.14789 22.0312 7.13996 20.9539C7.13332 20.0525 7.22644 19.7389 7.24603 19.673C7.24882 19.6636 7.25012 19.6592 7.24945 19.6589C7.33047 19.5601 7.41253 19.5062 7.48321 19.4789L7.48508 19.48C7.62087 19.5602 7.84181 19.7304 8.17793 20.0622C8.85711 20.7328 9.73403 21.7842 11.0083 23.3163L11.0604 23.379C11.6623 24.1028 12.193 24.741 12.6671 25.2039C13.1561 25.6814 13.7808 26.1752 14.6039 26.3127C15.3355 26.4348 16.0746 26.3068 16.7307 25.9579C17.4577 25.5715 17.9245 24.9227 18.2784 24.3143C18.624 23.7201 18.9854 22.9381 19.4012 22.038L24.116 11.8339ZM45.7505 19.6588C45.7545 19.6637 45.7586 19.6687 45.7626 19.6738C45.7576 19.6674 45.7542 19.6628 45.7522 19.6605C45.7515 19.6596 45.7509 19.659 45.7505 19.6588ZM26.5922 7.29592C26.5922 7.29696 26.5855 7.30116 26.5728 7.30545C26.586 7.29703 26.5922 7.29488 26.5922 7.29592ZM26.4271 7.30545C26.4143 7.30116 26.4078 7.29696 26.4078 7.29592C26.4076 7.29488 26.4141 7.29703 26.4271 7.30545Z" fill="white"/>
  </g>
  <defs>
    <filter id="filter0_f_281_34" x="0" y="0" width="53" height="55.528" filterUnits="userSpaceOnUse" color-interpolation-filters="sRGB">
      <feFlood flood-opacity="0" result="BackgroundImageFix"/>
      <feBlend mode="normal" in="SourceGraphic" in2="BackgroundImageFix" result="shape"/>
      <feGaussianBlur stdDeviation="2" result="effect1_foregroundBlur_281_34"/>
    </filter>
  </defs>
</svg>