<svg width="355" height="119" viewBox="0 0 355 119" fill="none" xmlns="http://www.w3.org/2000/svg">
<path d="M318.428 41.4555L318.491 40.4574L318.428 41.4555ZM123.616 29.2309L123.679 28.2328L123.616 29.2309ZM33.4252 74.6649L32.5859 74.1212L33.4252 74.6649ZM5.02214 117.209C5.13755 117.749 5.66898 118.093 6.20906 117.978L15.0103 116.097C15.5504 115.981 15.8946 115.45 15.7792 114.91C15.6637 114.37 15.1324 114.026 14.5923 114.141L6.76895 115.813L5.09688 107.99C4.98144 107.45 4.45004 107.105 3.90993 107.221C3.36985 107.336 3.02561 107.868 3.14103 108.408L5.02214 117.209ZM350.619 0.98776C350.885 1.95903 351.102 2.92858 351.272 3.8943L353.242 3.5469C353.061 2.52037 352.83 1.49064 352.548 0.460019L350.619 0.98776ZM351.745 9.81148C351.713 11.8194 351.485 13.7916 351.079 15.7073L353.035 16.1224C353.468 14.0822 353.711 11.9818 353.745 9.84338L351.745 9.81148ZM349.296 21.3689C348.521 23.2006 347.574 24.9503 346.474 26.5949L348.137 27.7066C349.306 25.9582 350.313 24.0976 351.138 22.1488L349.296 21.3689ZM342.724 31.2019C341.337 32.6126 339.816 33.8948 338.179 35.0261L339.317 36.6712C341.058 35.4676 342.675 34.1039 344.15 32.6043L342.724 31.2019ZM332.997 37.9207C331.204 38.7075 329.319 39.3307 327.359 39.7696L327.797 41.7213C329.884 41.2539 331.891 40.5901 333.801 39.7522L332.997 37.9207ZM321.469 40.5071C320.489 40.5363 319.496 40.5205 318.491 40.4574L318.366 42.4535C319.432 42.5204 320.487 42.5372 321.529 42.5062L321.469 40.5071ZM318.491 40.4574L315.447 40.2664L315.322 42.2625L318.366 42.4535L318.491 40.4574ZM309.359 39.8844L303.271 39.5024L303.146 41.4984L309.234 41.8805L309.359 39.8844ZM297.183 39.1204L291.095 38.7383L290.97 40.7344L297.058 41.1164L297.183 39.1204ZM285.007 38.3563L278.92 37.9743L278.794 39.9704L284.882 40.3524L285.007 38.3563ZM272.832 37.5923L266.744 37.2103L266.619 39.2063L272.706 39.5884L272.832 37.5923ZM260.656 36.8282L254.568 36.4462L254.443 38.4423L260.531 38.8243L260.656 36.8282ZM248.48 36.0642L242.392 35.6822L242.267 37.6783L248.355 38.0603L248.48 36.0642ZM236.304 35.3002L230.217 34.9181L230.091 36.9142L236.179 37.2962L236.304 35.3002ZM224.129 34.5361L218.041 34.1541L217.916 36.1502L224.003 36.5322L224.129 34.5361ZM211.953 33.7721L205.865 33.3901L205.74 35.3861L211.828 35.7682L211.953 33.7721ZM199.777 33.0081L193.689 32.626L193.564 34.6221L199.652 35.0041L199.777 33.0081ZM187.601 32.244L181.514 31.862L181.388 33.8581L187.476 34.2401L187.601 32.244ZM175.426 31.48L169.338 31.098L169.213 33.094L175.3 33.4761L175.426 31.48ZM163.25 30.7159L157.162 30.3339L157.037 32.33L163.125 32.712L163.25 30.7159ZM151.074 29.9519L144.986 29.5699L144.861 31.566L150.949 31.948L151.074 29.9519ZM138.898 29.1879L132.811 28.8058L132.685 30.8019L138.773 31.1839L138.898 29.1879ZM126.723 28.4238L123.679 28.2328L123.554 30.2289L126.597 30.4199L126.723 28.4238ZM123.679 28.2328C122.688 28.1707 121.699 28.1232 120.711 28.0902L120.645 30.0891C121.613 30.1214 122.583 30.168 123.554 30.2289L123.679 28.2328ZM114.772 28.0665C112.786 28.1169 110.809 28.2257 108.841 28.3918L109.01 30.3848C110.938 30.2219 112.876 30.1153 114.822 30.0658L114.772 28.0665ZM102.941 29.0656C100.977 29.3487 99.0261 29.6891 97.0902 30.0856L97.4916 32.0449C99.3891 31.6562 101.301 31.3226 103.226 31.0451L102.941 29.0656ZM91.309 31.4483C89.3936 31.9598 87.4959 32.5269 85.6183 33.1486L86.247 35.0472C88.0874 34.4379 89.9475 33.8819 91.8249 33.3806L91.309 31.4483ZM80.0376 35.1803C78.197 35.9123 76.3789 36.698 74.5859 37.5362L75.4328 39.348C77.1904 38.5264 78.9725 37.7562 80.7768 37.0387L80.0376 35.1803ZM69.2817 40.2082C67.5409 41.1502 65.8274 42.1435 64.1436 43.187L65.1971 44.887C66.8476 43.8642 68.5272 42.8906 70.2335 41.9672L69.2817 40.2082ZM59.1894 46.4623C57.5723 47.601 55.9871 48.7884 54.4361 50.0232L55.6817 51.5879C57.202 50.3776 58.7559 49.2137 60.3409 48.0975L59.1894 46.4623ZM49.9 53.8579C48.4292 55.1774 46.9944 56.5427 45.598 57.9524L47.019 59.3599C48.3876 57.9781 49.794 56.64 51.2356 55.3466L49.9 53.8579ZM41.5448 62.2928C40.2405 63.7747 38.9761 65.299 37.7537 66.8645L39.3301 68.0954C40.5283 66.5608 41.7676 65.0667 43.0461 63.6142L41.5448 62.2928ZM34.2375 71.6519C33.676 72.4652 33.1254 73.2884 32.5859 74.1212L34.2645 75.2086C34.7934 74.3922 35.3331 73.5853 35.8834 72.788L34.2375 71.6519ZM32.5859 74.1212L30.8719 76.7672L32.5504 77.8546L34.2645 75.2086L32.5859 74.1212ZM27.4437 82.0591L24.0156 87.3509L25.6941 88.4383L29.1223 83.1465L27.4437 82.0591ZM20.5874 92.6428L17.1593 97.9347L18.8378 99.0221L22.266 93.7302L20.5874 92.6428ZM13.7311 103.227L10.303 108.518L11.9815 109.606L15.4097 104.314L13.7311 103.227ZM6.87483 113.81L5.16075 116.456L6.83935 117.544L8.55342 114.898L6.87483 113.81ZM318.428 41.4555L318.553 39.4594L318.428 41.4555ZM123.616 29.2309L123.741 27.2348L123.616 29.2309ZM33.4252 74.6649L31.7466 73.5775L33.4252 74.6649ZM4.04423 117.418C4.27509 118.498 5.33788 119.187 6.41807 118.956L24.0205 115.194C25.1007 114.963 25.7892 113.9 25.5583 112.82C25.3274 111.74 24.2647 111.051 23.1845 111.282L7.53785 114.626L4.19368 98.9796C3.96282 97.8994 2.9 97.2109 1.81984 97.4418C0.739677 97.6726 0.051176 98.7354 0.282039 99.8156L4.04423 117.418ZM349.654 1.25163C349.912 2.19323 350.122 3.13269 350.287 4.068L354.226 3.37319C354.04 2.31626 353.803 1.25644 353.513 0.196149L349.654 1.25163ZM350.745 9.79554C350.714 11.7382 350.494 13.6462 350.101 15.4997L354.014 16.3299C354.46 14.2276 354.71 12.063 354.745 9.85933L350.745 9.79554ZM348.375 20.979C347.625 22.7522 346.708 24.4463 345.643 26.039L348.968 28.2625C350.172 26.4622 351.209 24.546 352.059 22.5387L348.375 20.979ZM342.011 30.5008C340.667 31.8669 339.195 33.1084 337.611 34.2035L339.886 37.4937C341.679 36.254 343.344 34.8496 344.863 33.3054L342.011 30.5008ZM332.596 37.005C330.861 37.7662 329.037 38.3692 327.141 38.7938L328.015 42.6971C330.166 42.2154 332.235 41.5314 334.203 40.668L332.596 37.005ZM321.44 39.5075C320.49 39.5358 319.528 39.5205 318.553 39.4594L318.303 43.4515C319.4 43.5204 320.486 43.5377 321.559 43.5058L321.44 39.5075ZM318.553 39.4594L315.51 39.2684L315.259 43.2605L318.303 43.4515L318.553 39.4594ZM309.422 38.8864L303.334 38.5043L303.083 42.4965L309.171 42.8785L309.422 38.8864ZM297.246 38.1223L291.158 37.7403L290.907 41.7324L296.995 42.1145L297.246 38.1223ZM285.07 37.3583L278.982 36.9763L278.732 40.9684L284.82 41.3504L285.07 37.3583ZM272.894 36.5942L266.807 36.2122L266.556 40.2044L272.644 40.5864L272.894 36.5942ZM260.719 35.8302L254.631 35.4482L254.38 39.4403L260.468 39.8224L260.719 35.8302ZM248.543 35.0662L242.455 34.6841L242.204 38.6763L248.292 39.0583L248.543 35.0662ZM236.367 34.3021L230.279 33.9201L230.029 37.9123L236.117 38.2943L236.367 34.3021ZM224.191 33.5381L218.103 33.1561L217.853 37.1482L223.941 37.5302L224.191 33.5381ZM212.016 32.7741L205.928 32.392L205.677 36.3842L211.765 36.7662L212.016 32.7741ZM199.84 32.01L193.752 31.628L193.501 35.6201L199.589 36.0022L199.84 32.01ZM187.664 31.246L181.576 30.864L181.326 34.8561L187.414 35.2381L187.664 31.246ZM175.488 30.4819L169.4 30.0999L169.15 34.0921L175.238 34.4741L175.488 30.4819ZM163.313 29.7179L157.225 29.3359L156.974 33.328L163.062 33.7101L163.313 29.7179ZM151.137 28.9539L145.049 28.5718L144.798 32.564L150.886 32.946L151.137 28.9539ZM138.961 28.1898L132.873 27.8078L132.623 31.8L138.711 32.182L138.961 28.1898ZM126.785 27.4258L123.741 27.2348L123.491 31.2269L126.535 31.4179L126.785 27.4258ZM123.741 27.2348C122.741 27.172 121.742 27.1241 120.745 27.0908L120.611 31.0886C121.57 31.1205 122.53 31.1666 123.491 31.2269L123.741 27.2348ZM114.746 27.0668C112.741 27.1177 110.744 27.2276 108.757 27.3954L109.094 31.3812C111.002 31.22 112.921 31.1144 114.848 31.0655L114.746 27.0668ZM102.798 28.0758C100.815 28.3617 98.8446 28.7055 96.8896 29.1059L97.6923 33.0246C99.5705 32.6398 101.464 32.3096 103.369 32.0349L102.798 28.0758ZM91.051 30.4822C89.1166 30.9987 87.2002 31.5714 85.304 32.1993L86.5613 35.9965C88.3831 35.3933 90.2244 34.843 92.0829 34.3468L91.051 30.4822ZM79.6681 34.2511C77.8092 34.9903 75.9732 35.7838 74.1624 36.6303L75.8563 40.2539C77.5962 39.4406 79.3603 38.6782 81.1463 37.9679L79.6681 34.2511ZM68.8057 39.3287C67.0477 40.2801 65.3173 41.2832 63.6169 42.3369L65.7239 45.737C67.3577 44.7246 69.0203 43.7607 70.7095 42.8467L68.8057 39.3287ZM58.6136 45.6447C56.9805 46.7947 55.3796 47.9938 53.8132 49.2409L56.3046 52.3703C57.8095 51.1722 59.3477 50.0201 60.9167 48.9151L58.6136 45.6447ZM49.2323 53.1135C47.7468 54.4462 46.2978 55.825 44.8876 57.2487L47.7294 60.0636C49.0843 58.6959 50.4763 57.3712 51.9034 56.0909L49.2323 53.1135ZM40.7941 61.6321C39.4769 63.1287 38.2 64.6681 36.9655 66.2491L40.1184 68.7108C41.3044 67.1917 42.5312 65.7127 43.7967 64.2749L40.7941 61.6321ZM33.4145 71.0838C32.8475 71.9052 32.2915 72.7365 31.7466 73.5775L35.1038 75.7523C35.6273 74.9441 36.1616 74.1453 36.7064 73.356L33.4145 71.0838ZM31.7466 73.5775L30.0326 76.2235L33.3897 78.3983L35.1038 75.7523L31.7466 73.5775ZM26.6044 81.5154L23.1763 86.8072L26.5334 88.982L29.9615 83.6901L26.6044 81.5154ZM19.7481 92.0991L16.32 97.391L19.6771 99.5658L23.1053 94.2739L19.7481 92.0991ZM12.8919 102.683L9.46371 107.975L12.8208 110.15L16.249 104.858L12.8919 102.683ZM6.03556 113.267L4.32149 115.913L7.67861 118.087L9.39269 115.441L6.03556 113.267Z" fill="#FF8132"/>
</svg>
