<svg width="424" height="175" viewBox="0 0 424 175" fill="none" xmlns="http://www.w3.org/2000/svg">
<path d="M183.5 56.8532C183.5 62.2707 180.381 66.8021 174.506 70.6149C168.609 74.4423 160.132 77.3993 149.953 79.6252C129.617 84.072 102.984 85.5 77.9467 85.5C52.779 85.5 33.5527 85.4856 20.5847 81.7891C14.1499 79.9549 9.42909 77.2562 6.30062 73.3449C3.18178 69.4456 1.49999 64.1583 1.5 56.8532C1.5 54.0538 2.17394 51.7774 3.39019 49.8856C4.6132 47.9834 6.44053 46.3838 8.87386 45.0376C13.7865 42.3196 20.9491 40.7506 29.8281 39.7591C38.0269 38.8436 47.511 38.4358 57.7641 37.9949C58.5756 37.96 59.3921 37.9249 60.213 37.8894C71.3208 37.408 83.2301 36.8404 95.1841 35.5125C108.864 37.5685 121.307 38.5001 132.26 39.1192C135.455 39.2998 138.516 39.4535 141.441 39.6004C148.62 39.961 154.977 40.2803 160.486 40.8543C168.27 41.6652 174.046 42.9625 177.864 45.3997C179.739 46.596 181.124 48.0576 182.052 49.8761C182.985 51.7039 183.5 53.9771 183.5 56.8532Z" stroke="#FF8132" stroke-width="3"/>
<path d="M254.537 131.842L254.875 130.901L254.537 131.842ZM337.674 124.76L337.181 123.89L337.674 124.76ZM422.964 77.2668C423.111 76.7346 422.799 76.1836 422.267 76.0363L413.593 73.6351C413.061 73.4877 412.51 73.7998 412.362 74.332C412.215 74.8643 412.527 75.4152 413.059 75.5626L420.769 77.697L418.635 85.407C418.488 85.9393 418.8 86.4902 419.332 86.6375C419.864 86.7849 420.415 86.4729 420.563 85.9406L422.964 77.2668ZM123.29 85.6824L126.018 86.6637L126.695 84.7818L123.968 83.8005L123.29 85.6824ZM131.472 88.6262L136.927 90.5887L137.604 88.7068L132.149 86.7443L131.472 88.6262ZM142.381 92.5512L147.836 94.5137L148.513 92.6318L143.058 90.6693L142.381 92.5512ZM153.29 96.4762L158.745 98.4387L159.422 96.5568L153.967 94.5943L153.29 96.4762ZM164.199 100.401L169.654 102.364L170.331 100.482L164.876 98.5193L164.199 100.401ZM175.108 104.326L180.563 106.289L181.24 104.407L175.785 102.444L175.108 104.326ZM186.017 108.251L191.472 110.214L192.149 108.332L186.694 106.369L186.017 108.251ZM196.926 112.176L202.381 114.139L203.058 112.257L197.603 110.294L196.926 112.176ZM207.835 116.101L213.29 118.064L213.967 116.182L208.512 114.219L207.835 116.101ZM218.744 120.026L224.199 121.989L224.876 120.107L219.421 118.144L218.744 120.026ZM229.653 123.951L235.108 125.914L235.785 124.032L230.33 122.069L229.653 123.951ZM240.562 127.876L246.017 129.839L246.694 127.957L241.239 125.994L240.562 127.876ZM251.471 131.801L254.198 132.783L254.875 130.901L252.148 129.919L251.471 131.801ZM254.198 132.783C255.174 133.134 256.153 133.469 257.136 133.789L257.755 131.887C256.792 131.574 255.832 131.245 254.875 130.901L254.198 132.783ZM263.096 135.528C265.105 136.048 267.124 136.504 269.151 136.898L269.532 134.935C267.545 134.549 265.566 134.101 263.597 133.592L263.096 135.528ZM275.279 137.893C277.334 138.162 279.394 138.367 281.457 138.509L281.594 136.514C279.573 136.375 277.553 136.173 275.538 135.91L275.279 137.893ZM287.661 138.744C289.731 138.759 291.801 138.711 293.867 138.598L293.759 136.601C291.734 136.711 289.705 136.759 287.675 136.744L287.661 138.744ZM300.053 138.071C302.108 137.833 304.156 137.531 306.195 137.166L305.842 135.197C303.844 135.555 301.837 135.851 299.822 136.085L300.053 138.071ZM312.27 135.884C314.278 135.396 316.274 134.845 318.254 134.232L317.663 132.321C315.722 132.922 313.766 133.462 311.797 133.941L312.27 135.884ZM324.125 132.215C326.057 131.485 327.97 130.693 329.862 129.841L329.04 128.017C327.186 128.853 325.311 129.628 323.418 130.345L324.125 132.215ZM335.442 127.119C336.356 126.637 337.265 126.141 338.167 125.63L337.181 123.89C336.297 124.391 335.406 124.877 334.51 125.349L335.442 127.119ZM338.167 125.63L340.802 124.138L339.816 122.397L337.181 123.89L338.167 125.63ZM346.072 121.153L351.343 118.168L350.357 116.427L345.087 119.412L346.072 121.153ZM356.613 115.183L361.883 112.198L360.898 110.457L355.627 113.442L356.613 115.183ZM367.154 109.213L372.424 106.228L371.439 104.487L366.168 107.472L367.154 109.213ZM377.695 103.243L382.965 100.258L381.979 98.5174L376.709 101.502L377.695 103.243ZM388.235 97.2727L393.506 94.2877L392.52 92.5474L387.25 95.5324L388.235 97.2727ZM398.776 91.3027L404.046 88.3177L403.061 86.5774L397.79 89.5624L398.776 91.3027ZM409.317 85.3327L414.587 82.3477L413.602 80.6074L408.331 83.5924L409.317 85.3327ZM419.858 79.3627L422.493 77.8702L421.507 76.1299L418.872 77.6224L419.858 79.3627ZM254.537 131.842L255.214 129.96L254.537 131.842ZM337.674 124.76L336.688 123.02L337.674 124.76ZM423.927 77.5336C424.222 76.4691 423.598 75.3672 422.534 75.0725L405.186 70.2701C404.122 69.9754 403.02 70.5995 402.725 71.664C402.43 72.7285 403.054 73.8304 404.119 74.1251L419.539 78.3939L415.27 93.814C414.975 94.8785 415.599 95.9804 416.664 96.2751C417.729 96.5698 418.83 95.9457 419.125 94.8812L423.927 77.5336ZM122.952 86.6234L125.679 87.6046L127.033 83.8408L124.306 82.8596L122.952 86.6234ZM131.134 89.5671L136.588 91.5297L137.942 87.7659L132.488 85.8034L131.134 89.5671ZM142.043 93.4922L147.497 95.4547L148.851 91.6909L143.397 89.7284L142.043 93.4922ZM152.952 97.4172L158.406 99.3797L159.76 95.6159L154.306 93.6534L152.952 97.4172ZM163.861 101.342L169.315 103.305L170.669 99.5409L165.215 97.5784L163.861 101.342ZM174.77 105.267L180.224 107.23L181.578 103.466L176.124 101.503L174.77 105.267ZM185.679 109.192L191.133 111.155L192.487 107.391L187.033 105.428L185.679 109.192ZM196.588 113.117L202.042 115.08L203.396 111.316L197.942 109.353L196.588 113.117ZM207.497 117.042L212.951 119.005L214.305 115.241L208.851 113.278L207.497 117.042ZM218.406 120.967L223.86 122.93L225.214 119.166L219.76 117.203L218.406 120.967ZM229.315 124.892L234.769 126.855L236.123 123.091L230.669 121.129L229.315 124.892ZM240.224 128.817L245.678 130.78L247.032 127.016L241.578 125.054L240.224 128.817ZM251.133 132.742L253.86 133.724L255.214 129.96L252.487 128.979L251.133 132.742ZM253.86 133.724C254.845 134.078 255.834 134.417 256.826 134.74L258.064 130.936C257.111 130.626 256.161 130.3 255.214 129.96L253.86 133.724ZM262.845 136.496C264.874 137.021 266.913 137.482 268.961 137.88L269.723 133.953C267.756 133.571 265.796 133.128 263.847 132.624L262.845 136.496ZM275.149 138.884C277.225 139.156 279.305 139.363 281.388 139.507L281.663 135.516C279.662 135.378 277.663 135.179 275.668 134.918L275.149 138.884ZM287.653 139.744C289.745 139.759 291.835 139.71 293.921 139.597L293.704 135.603C291.7 135.712 289.692 135.759 287.682 135.744L287.653 139.744ZM300.168 139.065C302.244 138.824 304.312 138.519 306.371 138.15L305.666 134.213C303.688 134.567 301.701 134.86 299.707 135.092L300.168 139.065ZM312.506 136.856C314.534 136.363 316.55 135.806 318.55 135.187L317.367 131.366C315.446 131.961 313.509 132.495 311.56 132.969L312.506 136.856ZM324.479 133.15C326.43 132.413 328.362 131.613 330.272 130.753L328.63 127.106C326.794 127.932 324.938 128.7 323.064 129.409L324.479 133.15ZM335.908 128.004C336.831 127.517 337.748 127.016 338.66 126.5L336.688 123.02C335.813 123.516 334.931 123.997 334.044 124.464L335.908 128.004ZM338.66 126.5L341.295 125.008L339.323 121.527L336.688 123.02L338.66 126.5ZM346.565 122.023L351.835 119.038L349.864 115.557L344.594 118.542L346.565 122.023ZM357.106 116.053L362.376 113.068L360.405 109.587L355.135 112.572L357.106 116.053ZM367.647 110.083L372.917 107.098L370.946 103.617L365.675 106.602L367.647 110.083ZM378.187 104.113L383.458 101.128L381.486 97.6473L376.216 100.632L378.187 104.113ZM388.728 98.1428L393.999 95.1578L392.027 91.6773L386.757 94.6623L388.728 98.1428ZM399.269 92.1728L404.539 89.1878L402.568 85.7073L397.298 88.6923L399.269 92.1728ZM409.81 86.2028L415.08 83.2178L413.109 79.7373L407.838 82.7223L409.81 86.2028ZM420.35 80.2328L422.986 78.7403L421.014 75.2598L418.379 76.7523L420.35 80.2328Z" fill="#FF8132"/>
</svg>
