<svg width="318" height="212" viewBox="0 0 318 212" fill="none" xmlns="http://www.w3.org/2000/svg">
<path d="M165.598 6.36432L180.888 34.6564C183.706 39.8709 190.279 41.7208 195.403 38.7415L232.495 17.1752C238.38 13.7536 245.412 19.31 243.445 25.8266L238.345 42.7174C236.079 50.2219 242.538 57.4727 250.253 56.0868L286.17 49.6353C293.928 48.2419 298.309 58.2252 292.031 62.9909L283.96 69.1172C276.407 74.8514 279.724 86.8687 289.149 87.9162L308.985 90.1205C317.223 91.0361 318.107 102.668 310.101 104.818L297.061 108.32C287.595 110.862 286.465 123.839 295.35 127.978L304.575 132.276C311.972 135.723 309.322 146.834 301.165 146.571L272.841 145.657C264.024 145.372 258.807 155.429 264.119 162.473L271.838 172.708C276.308 178.636 270.371 186.76 263.366 184.301L223.797 170.414C217.431 168.179 210.639 172.443 209.886 179.148L207.169 203.324C206.474 209.499 199.002 212.2 194.52 207.895L166.273 180.766C162.21 176.863 155.79 176.863 151.727 180.766L123.48 207.895C118.998 212.2 111.526 209.499 110.831 203.324L108.114 179.148C107.361 172.443 100.569 168.179 94.2028 170.414L54.6341 184.301C47.6291 186.76 41.6923 178.636 46.1623 172.708L53.8809 162.473C59.1928 155.43 53.9764 145.372 45.1588 145.657L16.8348 146.571C8.67841 146.834 6.02819 135.723 13.4253 132.276L22.6502 127.978C31.5348 123.839 30.4052 110.862 20.939 108.32L7.89861 104.818C-0.107048 102.668 0.776855 91.0361 9.01551 90.1205L28.8506 87.9162C38.2763 86.8687 41.5933 74.8514 34.0396 69.1172L25.9694 62.9909C19.6914 58.2252 24.0723 48.2419 31.8301 49.6353L67.7468 56.0868C75.4623 57.4727 81.9206 50.2218 79.655 42.7174L74.5554 25.8266C72.588 19.31 79.6204 13.7536 85.5051 17.1752L122.597 38.7415C127.721 41.7208 134.294 39.8709 137.112 34.6564L152.402 6.36431C155.237 1.11865 162.763 1.11866 165.598 6.36432Z" stroke="white" stroke-width="3"/>
</svg>
