<svg width="200" height="45" viewBox="0 0 200 45" fill="none" xmlns="http://www.w3.org/2000/svg">
<path d="M19.0469 37.3125L1.29688 23.1875C0.963542 22.8542 0.796875 22.4583 0.796875 22C0.796875 21.5833 0.963542 21.25 1.29688 21L18.5781 7.25C18.7031 7.125 18.8594 7.14583 19.0469 7.3125L22.1719 11.2188C22.2969 11.4688 22.3177 11.6354 22.2344 11.7188L9.42188 22.0938L22.6719 32.8438C22.8177 32.9688 22.8177 33.1354 22.6719 33.3438L19.4844 37.25C19.3177 37.4167 19.1719 37.4375 19.0469 37.3125ZM57.8203 44.7461L64.2695 9.02148C64.3034 8.88607 64.388 8.81836 64.5234 8.81836H72.0645C72.1999 8.81836 72.2845 8.88607 72.3184 9.02148L78.5137 44.7461C78.5306 44.9154 78.4629 45 78.3105 45H72.5469C72.3776 45 72.2845 44.9154 72.2676 44.7461L71.709 40.9375H64.625L64.0664 44.7461C64.0495 44.9154 63.9648 45 63.8125 45H58.0234C57.888 45 57.8203 44.9154 57.8203 44.7461ZM68.5352 20.7773L68.2305 18.8477L68.002 20.7773L65.666 35.377H70.668L68.5352 20.7773ZM87.8574 45H81.9668C81.8314 45 81.7637 44.9154 81.7637 44.7461L81.8145 9.02148C81.8145 8.88607 81.8991 8.81836 82.0684 8.81836H87.8574C88.0267 8.81836 88.1113 8.88607 88.1113 9.02148L88.0605 23.1641H95.8555V9.02148C95.8555 8.88607 95.9232 8.81836 96.0586 8.81836H101.848C102.017 8.81836 102.102 8.88607 102.102 9.02148L102.203 44.7461C102.203 44.9154 102.118 45 101.949 45H96.1094C95.9401 45 95.8555 44.9154 95.8555 44.7461V29.4609H88.0605V44.7461C88.0605 44.9154 87.9928 45 87.8574 45ZM112.588 45H106.697C106.528 45 106.443 44.9154 106.443 44.7461L106.494 9.02148C106.494 8.88607 106.562 8.81836 106.697 8.81836H112.537C112.673 8.81836 112.74 8.88607 112.74 9.02148L112.791 44.7461C112.791 44.9154 112.723 45 112.588 45ZM123.455 45H117.564C117.429 45 117.361 44.9154 117.361 44.7461L117.463 9.02148C117.463 8.88607 117.531 8.81836 117.666 8.81836H124.014C124.149 8.81836 124.268 8.88607 124.369 9.02148L129.117 15.877L133.84 9.02148C133.941 8.88607 134.068 8.81836 134.221 8.81836H140.594C140.746 8.81836 140.822 8.88607 140.822 9.02148L140.924 44.7461C140.924 44.9154 140.856 45 140.721 45H134.83C134.695 45 134.627 44.9154 134.627 44.7461L134.576 18.2129L129.117 26.1348L123.709 18.2129L123.658 44.7461C123.658 44.9154 123.59 45 123.455 45ZM164.984 45H158.453C158.266 45 158.182 44.8958 158.203 44.6875L166.141 0.71875C166.182 0.552083 166.286 0.46875 166.453 0.46875H173.109C173.318 0.46875 173.401 0.552083 173.359 0.71875L165.297 44.6875C165.276 44.8958 165.172 45 164.984 45ZM199.266 23.1875L181.547 37.3125C181.422 37.4375 181.276 37.4167 181.109 37.25L177.891 33.3438C177.766 33.1354 177.766 32.9688 177.891 32.8438L191.141 22.0938L178.328 11.7188C178.245 11.6354 178.276 11.4688 178.422 11.2188L181.547 7.3125C181.714 7.14583 181.859 7.125 181.984 7.25L199.266 21C199.62 21.25 199.797 21.5833 199.797 22C199.797 22.4375 199.62 22.8333 199.266 23.1875Z" fill="#FF8132"/>
<path d="M36.6719 45H29.4219C29.2552 45 29.1719 44.8958 29.1719 44.6875L29.2969 0.71875C29.2969 0.552083 29.3802 0.46875 29.5469 0.46875H42.4844C44.7969 0.46875 46.9219 1.03125 48.8594 2.15625C50.7969 3.28125 52.3385 4.79167 53.4844 6.6875C54.651 8.58333 55.2344 10.7292 55.2344 13.125C55.2344 14.6875 54.9948 16.1042 54.5156 17.375C54.0365 18.6458 53.474 19.7188 52.8281 20.5938C52.2031 21.4688 51.6302 22.1146 51.1094 22.5312C53.4219 25.0938 54.5781 28.1042 54.5781 31.5625L54.6406 44.6875C54.6406 44.8958 54.5365 45 54.3281 45H47.0781C46.9115 45 46.8281 44.9375 46.8281 44.8125V31.5625C46.8281 30.0208 46.2865 28.6875 45.2031 27.5625C44.1198 26.4375 42.7865 25.875 41.2031 25.875H36.9844L36.9219 44.6875C36.9219 44.8958 36.8385 45 36.6719 45ZM42.4844 8.125H36.9844V18.1875H42.4844C43.7969 18.1875 44.9635 17.6979 45.9844 16.7188C47.026 15.7396 47.5469 14.5417 47.5469 13.125C47.5469 11.7708 47.0469 10.6042 46.0469 9.625C45.0469 8.625 43.8594 8.125 42.4844 8.125ZM153.266 45H146.016C145.849 45 145.766 44.9167 145.766 44.75V37.5C145.766 37.3333 145.849 37.25 146.016 37.25H153.266C153.432 37.25 153.516 37.3333 153.516 37.5V44.75C153.516 44.9167 153.432 45 153.266 45Z" fill="white"/>
</svg>
