<svg width="41" height="41" viewBox="0 0 41 41" fill="none" xmlns="http://www.w3.org/2000/svg">
<path id="Vector" d="M22.3727 1.99375C21.7238 0.263416 19.2762 0.263418 18.6273 1.99376L14.4101 13.2397C14.2073 13.7805 13.7805 14.2073 13.2397 14.4101L1.99375 18.6273C0.263416 19.2762 0.263419 21.7238 1.99376 22.3727L13.2397 26.5899C13.7805 26.7927 14.2073 27.2195 14.4101 27.7603L18.6273 39.0062C19.2762 40.7366 21.7238 40.7366 22.3727 39.0062L26.5899 27.7603C26.7927 27.2195 27.2195 26.7927 27.7603 26.5899L39.0062 22.3727C40.7366 21.7238 40.7366 19.2762 39.0062 18.6273L27.7603 14.4101C27.2195 14.2073 26.7927 13.7805 26.5899 13.2397L22.3727 1.99375Z" fill="#FF8132"/>
</svg>
